<?xml version="1.0" standalone="no"?>
<!DOCTYPE svg PUBLIC "-//W3C//DTD SVG 1.1//EN" "http://www.w3.org/Graphics/SVG/1.1/DTD/svg11.dtd">
<svg version="1.1" xmlns="http://www.w3.org/2000/svg" viewBox="0 0 65.72419192981306 180.31715482849427" width="131.44838385962612" height="360.63430965698853"><!-- svg-source:excalidraw --><metadata></metadata><defs><style class="style-fonts">
      </style></defs><g stroke-linecap="round"><g transform="translate(10.181314050702213 138.76226597854566) rotate(0 22.68078191420409 -48.603688564298636)" fill-rule="evenodd"><path d="M0 0 C0.26 4.46, -1.26 21.55, 1.55 26.76 C4.36 31.96, 9.97 30.91, 16.85 31.25 C23.73 31.59, 38.19 32.34, 42.84 28.79 C47.48 25.24, 44.75 18.16, 44.7 9.97 C44.65 1.78, 43.93 -11.87, 42.52 -20.37 C41.12 -28.86, 37.81 -33.9, 36.27 -40.99 C34.73 -48.09, 34.63 -51.22, 33.31 -62.92 C31.98 -74.62, 30.77 -100.22, 28.33 -111.18 C25.88 -122.14, 21.17 -129.61, 18.66 -128.68 C16.14 -127.76, 14.7 -116.84, 13.23 -105.61 C11.75 -94.39, 11.3 -74.31, 9.82 -61.33 C8.34 -48.35, 5.77 -35.21, 4.36 -27.73 C2.95 -20.24, 2.07 -21.05, 1.34 -16.43 C0.61 -11.8, 0.22 -2.74, 0 0" stroke="none" stroke-width="0" fill="#b2f2bb" fill-rule="evenodd"></path><path d="M0 0 C0.26 4.46, -1.26 21.55, 1.55 26.76 C4.36 31.96, 9.97 30.91, 16.85 31.25 C23.73 31.59, 38.19 32.34, 42.84 28.79 C47.48 25.24, 44.75 18.16, 44.7 9.97 C44.65 1.78, 43.93 -11.87, 42.52 -20.37 C41.12 -28.86, 37.81 -33.9, 36.27 -40.99 C34.73 -48.09, 34.63 -51.22, 33.31 -62.92 C31.98 -74.62, 30.77 -100.22, 28.33 -111.18 C25.88 -122.14, 21.17 -129.61, 18.66 -128.68 C16.14 -127.76, 14.7 -116.84, 13.23 -105.61 C11.75 -94.39, 11.3 -74.31, 9.82 -61.33 C8.34 -48.35, 5.77 -35.21, 4.36 -27.73 C2.95 -20.24, 2.07 -21.05, 1.34 -16.43 C0.61 -11.8, 0.22 -2.74, 0 0 M0 0 C0.26 4.46, -1.26 21.55, 1.55 26.76 C4.36 31.96, 9.97 30.91, 16.85 31.25 C23.73 31.59, 38.19 32.34, 42.84 28.79 C47.48 25.24, 44.75 18.16, 44.7 9.97 C44.65 1.78, 43.93 -11.87, 42.52 -20.37 C41.12 -28.86, 37.81 -33.9, 36.27 -40.99 C34.73 -48.09, 34.63 -51.22, 33.31 -62.92 C31.98 -74.62, 30.77 -100.22, 28.33 -111.18 C25.88 -122.14, 21.17 -129.61, 18.66 -128.68 C16.14 -127.76, 14.7 -116.84, 13.23 -105.61 C11.75 -94.39, 11.3 -74.31, 9.82 -61.33 C8.34 -48.35, 5.77 -35.21, 4.36 -27.73 C2.95 -20.24, 2.07 -21.05, 1.34 -16.43 C0.61 -11.8, 0.22 -2.74, 0 0" stroke="#1e1e1e" stroke-width="2" fill="none"></path></g></g><mask></mask><g stroke-linecap="round"><g transform="translate(19.05183685766565 112.73341509271904) rotate(0 13.102734182763356 -1.6816339272266987)"><path d="M0 0 C1.3 -0.42, 4.5 -1.96, 7.78 -2.51 C11.06 -3.05, 16.61 -3.57, 19.68 -3.28 C22.75 -3, 25.12 -1.22, 26.21 -0.81 M0 0 C1.3 -0.42, 4.5 -1.96, 7.78 -2.51 C11.06 -3.05, 16.61 -3.57, 19.68 -3.28 C22.75 -3, 25.12 -1.22, 26.21 -0.81" stroke="#1e1e1e" stroke-width="2" fill="none"></path></g></g><mask></mask></svg>