<?xml version="1.0" standalone="no"?>
<!DOCTYPE svg PUBLIC "-//W3C//DTD SVG 1.1//EN" "http://www.w3.org/Graphics/SVG/1.1/DTD/svg11.dtd">
<svg version="1.1" xmlns="http://www.w3.org/2000/svg" viewBox="0 0 60.13586954032348 171.7494036996718" width="120.27173908064697" height="343.4988073993436"><!-- svg-source:excalidraw --><metadata></metadata><defs><style class="style-fonts">
      </style></defs><g stroke-linecap="round"><g transform="translate(10.176488949281747 134.7233870258401) rotate(0 19.891445820880108 -48.848685176004096)" fill-rule="evenodd"><path d="M0 0 C0.16 3.71, -0.93 17.86, 0.93 22.25 C2.8 26.63, 5.18 25.98, 11.22 26.31 C17.25 26.64, 32.48 28.58, 37.14 24.23 C41.81 19.87, 39.28 7.2, 39.23 0.19 C39.18 -6.82, 37.83 -12.9, 36.85 -17.84 C35.87 -22.77, 34.41 -23.14, 33.34 -29.44 C32.28 -35.74, 31.26 -46.95, 30.46 -55.63 C29.66 -64.32, 30.06 -71.25, 28.55 -81.53 C27.05 -91.82, 23.53 -110.2, 21.42 -117.33 C19.31 -124.46, 17.73 -125.51, 15.91 -124.29 C14.1 -123.06, 11.72 -119.03, 10.53 -109.98 C9.33 -100.93, 9.78 -83.68, 8.73 -69.96 C7.67 -56.24, 5.55 -36.66, 4.17 -27.67 C2.79 -18.68, 1.16 -20.65, 0.46 -16.04 C-0.23 -11.43, 0.08 -2.67, 0 0" stroke="none" stroke-width="0" fill="#b2f2bb" fill-rule="evenodd"></path><path d="M0 0 C0.16 3.71, -0.93 17.86, 0.93 22.25 C2.8 26.63, 5.18 25.98, 11.22 26.31 C17.25 26.64, 32.48 28.58, 37.14 24.23 C41.81 19.87, 39.28 7.2, 39.23 0.19 C39.18 -6.82, 37.83 -12.9, 36.85 -17.84 C35.87 -22.77, 34.41 -23.14, 33.34 -29.44 C32.28 -35.74, 31.26 -46.95, 30.46 -55.63 C29.66 -64.32, 30.06 -71.25, 28.55 -81.53 C27.05 -91.82, 23.53 -110.2, 21.42 -117.33 C19.31 -124.46, 17.73 -125.51, 15.91 -124.29 C14.1 -123.06, 11.72 -119.03, 10.53 -109.98 C9.33 -100.93, 9.78 -83.68, 8.73 -69.96 C7.67 -56.24, 5.55 -36.66, 4.17 -27.67 C2.79 -18.68, 1.16 -20.65, 0.46 -16.04 C-0.23 -11.43, 0.08 -2.67, 0 0 M0 0 C0.16 3.71, -0.93 17.86, 0.93 22.25 C2.8 26.63, 5.18 25.98, 11.22 26.31 C17.25 26.64, 32.48 28.58, 37.14 24.23 C41.81 19.87, 39.28 7.2, 39.23 0.19 C39.18 -6.82, 37.83 -12.9, 36.85 -17.84 C35.87 -22.77, 34.41 -23.14, 33.34 -29.44 C32.28 -35.74, 31.26 -46.95, 30.46 -55.63 C29.66 -64.32, 30.06 -71.25, 28.55 -81.53 C27.05 -91.82, 23.53 -110.2, 21.42 -117.33 C19.31 -124.46, 17.73 -125.51, 15.91 -124.29 C14.1 -123.06, 11.72 -119.03, 10.53 -109.98 C9.33 -100.93, 9.78 -83.68, 8.73 -69.96 C7.67 -56.24, 5.55 -36.66, 4.17 -27.67 C2.79 -18.68, 1.16 -20.65, 0.46 -16.04 C-0.23 -11.43, 0.08 -2.67, 0 0" stroke="#1e1e1e" stroke-width="2" fill="none"></path></g></g><mask></mask><g stroke-linecap="round"><g transform="translate(17.14179860358263 110.13670606301639) rotate(0 10.957059350550367 -1.756429626073782)"><path d="M0 0 C1.95 -0.58, 8.04 -3.11, 11.69 -3.46 C15.34 -3.81, 20.21 -2.32, 21.91 -2.09 M0 0 C1.95 -0.58, 8.04 -3.11, 11.69 -3.46 C15.34 -3.81, 20.21 -2.32, 21.91 -2.09" stroke="#1e1e1e" stroke-width="2" fill="none"></path></g></g><mask></mask></svg>