<?xml version="1.0" standalone="no"?>
<!DOCTYPE svg PUBLIC "-//W3C//DTD SVG 1.1//EN" "http://www.w3.org/Graphics/SVG/1.1/DTD/svg11.dtd">
<svg version="1.1" xmlns="http://www.w3.org/2000/svg" viewBox="0 0 62.729473626968456 187.70587815960403" width="125.45894725393691" height="375.41175631920805"><!-- svg-source:excalidraw --><metadata></metadata><defs><style class="style-fonts">
      </style></defs><g stroke-linecap="round"><g transform="translate(43.255208867329884 79.06849209278471) rotate(0 -11.890472053845656 14.784446987017418)" fill-rule="evenodd"><path d="M0 0 C0.42 7.27, 1.16 33.22, 2.52 43.62 C3.87 54.02, 7.23 55.38, 8.13 62.39 C9.02 69.39, 10.77 79.61, 7.89 85.65 C5 91.69, -2.7 98.43, -9.16 98.63 C-15.63 98.84, -27.05 93.15, -30.91 86.87 C-34.76 80.59, -32.85 69.11, -32.27 60.96 C-31.7 52.8, -29.48 56.33, -27.47 37.94 C-25.46 19.54, -22.25 -31.74, -20.21 -49.42 C-18.17 -67.11, -18 -71.12, -15.24 -68.2 C-12.48 -65.27, -6.18 -43.23, -3.64 -31.87 C-1.1 -20.5, -0.61 -5.31, 0 0" stroke="none" stroke-width="0" fill="#b2f2bb" fill-rule="evenodd"></path><path d="M0 0 C0.42 7.27, 1.16 33.22, 2.52 43.62 C3.87 54.02, 7.23 55.38, 8.13 62.39 C9.02 69.39, 10.77 79.61, 7.89 85.65 C5 91.69, -2.7 98.43, -9.16 98.63 C-15.63 98.84, -27.05 93.15, -30.91 86.87 C-34.76 80.59, -32.85 69.11, -32.27 60.96 C-31.7 52.8, -29.48 56.33, -27.47 37.94 C-25.46 19.54, -22.25 -31.74, -20.21 -49.42 C-18.17 -67.11, -18 -71.12, -15.24 -68.2 C-12.48 -65.27, -6.18 -43.23, -3.64 -31.87 C-1.1 -20.5, -0.61 -5.31, 0 0 M0 0 C0.42 7.27, 1.16 33.22, 2.52 43.62 C3.87 54.02, 7.23 55.38, 8.13 62.39 C9.02 69.39, 10.77 79.61, 7.89 85.65 C5 91.69, -2.7 98.43, -9.16 98.63 C-15.63 98.84, -27.05 93.15, -30.91 86.87 C-34.76 80.59, -32.85 69.11, -32.27 60.96 C-31.7 52.8, -29.48 56.33, -27.47 37.94 C-25.46 19.54, -22.25 -31.74, -20.21 -49.42 C-18.17 -67.11, -18 -71.12, -15.24 -68.2 C-12.48 -65.27, -6.18 -43.23, -3.64 -31.87 C-1.1 -20.5, -0.61 -5.31, 0 0" stroke="#1e1e1e" stroke-width="2" fill="none"></path></g></g><mask></mask><g stroke-linecap="round"><g transform="translate(19.49051173694943 127.88065678283738) rotate(0 11.663103329592786 -1.652790374834467)"><path d="M0 0 C0.84 -0.49, 2.08 -2.47, 5.06 -2.97 C8.05 -3.46, 14.87 -3.38, 17.91 -2.96 C20.96 -2.55, 22.42 -0.89, 23.33 -0.47 M0 0 C0.84 -0.49, 2.08 -2.47, 5.06 -2.97 C8.05 -3.46, 14.87 -3.38, 17.91 -2.96 C20.96 -2.55, 22.42 -0.89, 23.33 -0.47" stroke="#1e1e1e" stroke-width="2" fill="none"></path></g></g><mask></mask></svg>