<?xml version="1.0" standalone="no"?>
<!DOCTYPE svg PUBLIC "-//W3C//DTD SVG 1.1//EN" "http://www.w3.org/Graphics/SVG/1.1/DTD/svg11.dtd">
<svg version="1.1" xmlns="http://www.w3.org/2000/svg" viewBox="0 0 67.95847926626368 168.91198596253685" width="135.91695853252736" height="337.8239719250737"><!-- svg-source:excalidraw --><metadata></metadata><defs><style class="style-fonts">
      </style></defs><g stroke-linecap="round"><g transform="translate(10 140.23135526744431) rotate(0 23.979239633131954 -55.775362286176005)" fill-rule="evenodd"><path d="M0 0 C0.5 1.78, -0.66 7.58, 3.02 10.67 C6.71 13.77, 16.48 17.93, 22.1 18.56 C27.71 19.2, 32.48 17.13, 36.71 14.49 C40.95 11.86, 46.07 9.29, 47.51 2.76 C48.95 -3.78, 46.55 -18.36, 45.38 -24.73 C44.2 -31.1, 42.05 -28.52, 40.45 -35.47 C38.85 -42.42, 37.26 -56.19, 35.8 -66.44 C34.34 -76.69, 33.9 -86.58, 31.69 -96.97 C29.49 -107.37, 25.07 -124.79, 22.55 -128.81 C20.04 -132.84, 17.94 -127.68, 16.59 -121.11 C15.24 -114.55, 15.79 -103.46, 14.43 -89.41 C13.08 -75.37, 10.52 -48.4, 8.44 -36.82 C6.37 -25.25, 3.37 -26.1, 1.97 -19.97 C0.56 -13.83, 0.33 -3.33, 0 0" stroke="none" stroke-width="0" fill="#b2f2bb" fill-rule="evenodd"></path><path d="M0 0 C0.5 1.78, -0.66 7.58, 3.02 10.67 C6.71 13.77, 16.48 17.93, 22.1 18.56 C27.71 19.2, 32.48 17.13, 36.71 14.49 C40.95 11.86, 46.07 9.29, 47.51 2.76 C48.95 -3.78, 46.55 -18.36, 45.38 -24.73 C44.2 -31.1, 42.05 -28.52, 40.45 -35.47 C38.85 -42.42, 37.26 -56.19, 35.8 -66.44 C34.34 -76.69, 33.9 -86.58, 31.69 -96.97 C29.49 -107.37, 25.07 -124.79, 22.55 -128.81 C20.04 -132.84, 17.94 -127.68, 16.59 -121.11 C15.24 -114.55, 15.79 -103.46, 14.43 -89.41 C13.08 -75.37, 10.52 -48.4, 8.44 -36.82 C6.37 -25.25, 3.37 -26.1, 1.97 -19.97 C0.56 -13.83, 0.33 -3.33, 0 0 M0 0 C0.5 1.78, -0.66 7.58, 3.02 10.67 C6.71 13.77, 16.48 17.93, 22.1 18.56 C27.71 19.2, 32.48 17.13, 36.71 14.49 C40.95 11.86, 46.07 9.29, 47.51 2.76 C48.95 -3.78, 46.55 -18.36, 45.38 -24.73 C44.2 -31.1, 42.05 -28.52, 40.45 -35.47 C38.85 -42.42, 37.26 -56.19, 35.8 -66.44 C34.34 -76.69, 33.9 -86.58, 31.69 -96.97 C29.49 -107.37, 25.07 -124.79, 22.55 -128.81 C20.04 -132.84, 17.94 -127.68, 16.59 -121.11 C15.24 -114.55, 15.79 -103.46, 14.43 -89.41 C13.08 -75.37, 10.52 -48.4, 8.44 -36.82 C6.37 -25.25, 3.37 -26.1, 1.97 -19.97 C0.56 -13.83, 0.33 -3.33, 0 0" stroke="#1e1e1e" stroke-width="2" fill="none"></path></g></g><mask></mask><g stroke-linecap="round"><g transform="translate(20.277958750874063 112.88436295648876) rotate(0 13.560049649769894 -2.6039102635131712)"><path d="M0 0 C1.01 -0.68, 2.74 -3.21, 6.03 -4.05 C9.33 -4.89, 16.26 -5.54, 19.78 -5.02 C23.29 -4.5, 25.9 -1.59, 27.12 -0.9 M0 0 C1.01 -0.68, 2.74 -3.21, 6.03 -4.05 C9.33 -4.89, 16.26 -5.54, 19.78 -5.02 C23.29 -4.5, 25.9 -1.59, 27.12 -0.9" stroke="#1e1e1e" stroke-width="2" fill="none"></path></g></g><mask></mask><g stroke-linecap="round"><g transform="translate(18.634703304561754 148.39164591177337) rotate(0 12.812579599175933 -1.1269534971963822)"><path d="M0 0 C1.98 0, 9.47 0.5, 11.88 0.02 C14.3 -0.46, 13.7 -2.95, 14.48 -2.88 C15.25 -2.81, 14.68 -0.04, 16.54 0.46 C18.4 0.96, 24.11 0.18, 25.63 0.12 M0 0 C1.98 0, 9.47 0.5, 11.88 0.02 C14.3 -0.46, 13.7 -2.95, 14.48 -2.88 C15.25 -2.81, 14.68 -0.04, 16.54 0.46 C18.4 0.96, 24.11 0.18, 25.63 0.12" stroke="#1e1e1e" stroke-width="2" fill="none"></path></g></g><mask></mask><g stroke-linecap="round"><g transform="translate(32.86373794272515 152.29710793595154) rotate(0 0.21025393914806045 -4.914175832585215)"><path d="M0 0 C0.07 -1.64, 0.35 -8.19, 0.42 -9.83 M0 0 C0.07 -1.64, 0.35 -8.19, 0.42 -9.83" stroke="#1e1e1e" stroke-width="2" fill="none"></path></g></g><mask></mask></svg>