<?xml version="1.0" standalone="no"?>
<!DOCTYPE svg PUBLIC "-//W3C//DTD SVG 1.1//EN" "http://www.w3.org/Graphics/SVG/1.1/DTD/svg11.dtd">
<svg version="1.1" xmlns="http://www.w3.org/2000/svg" viewBox="0 0 67.71558649499104 156.03640020274293" width="135.4311729899821" height="312.07280040548585"><!-- svg-source:excalidraw --><metadata></metadata><defs><style class="style-fonts">
      </style></defs><g stroke-linecap="round"><g transform="translate(22.525010869525545 57.996253996301675) rotate(0 11.332782377970034 20.021946105069674)" fill-rule="evenodd"><path d="M0 0 C-0.72 5.37, -2.38 23.93, -4.33 32.24 C-6.27 40.54, -10.66 42.56, -11.67 49.83 C-12.69 57.09, -13.33 69.49, -10.41 75.81 C-7.49 82.12, -1.18 86.73, 5.83 87.73 C12.84 88.72, 26.93 87.48, 31.67 81.78 C36.4 76.08, 35.36 62.09, 34.25 53.52 C33.14 44.96, 27.63 45.17, 25.01 30.38 C22.4 15.6, 21.17 -22.6, 18.57 -35.19 C15.98 -47.78, 12.56 -51.04, 9.47 -45.18 C6.37 -39.31, 1.58 -7.53, 0 0" stroke="none" stroke-width="0" fill="#b2f2bb" fill-rule="evenodd"></path><path d="M0 0 C-0.72 5.37, -2.38 23.93, -4.33 32.24 C-6.27 40.54, -10.66 42.56, -11.67 49.83 C-12.69 57.09, -13.33 69.49, -10.41 75.81 C-7.49 82.12, -1.18 86.73, 5.83 87.73 C12.84 88.72, 26.93 87.48, 31.67 81.78 C36.4 76.08, 35.36 62.09, 34.25 53.52 C33.14 44.96, 27.63 45.17, 25.01 30.38 C22.4 15.6, 21.17 -22.6, 18.57 -35.19 C15.98 -47.78, 12.56 -51.04, 9.47 -45.18 C6.37 -39.31, 1.58 -7.53, 0 0 M0 0 C-0.72 5.37, -2.38 23.93, -4.33 32.24 C-6.27 40.54, -10.66 42.56, -11.67 49.83 C-12.69 57.09, -13.33 69.49, -10.41 75.81 C-7.49 82.12, -1.18 86.73, 5.83 87.73 C12.84 88.72, 26.93 87.48, 31.67 81.78 C36.4 76.08, 35.36 62.09, 34.25 53.52 C33.14 44.96, 27.63 45.17, 25.01 30.38 C22.4 15.6, 21.17 -22.6, 18.57 -35.19 C15.98 -47.78, 12.56 -51.04, 9.47 -45.18 C6.37 -39.31, 1.58 -7.53, 0 0" stroke="#1e1e1e" stroke-width="2" fill="none"></path></g></g><mask></mask><g stroke-linecap="round"><g transform="translate(21.36831788313134 100.57130507504053) rotate(0 12.257857710098051 -1.5632470687307887)"><path d="M0 0 C1.33 -0.58, 4.75 -2.93, 8.01 -3.48 C11.27 -4.04, 16.78 -4.03, 19.53 -3.32 C22.29 -2.62, 23.69 0.07, 24.52 0.75 M0 0 C1.33 -0.58, 4.75 -2.93, 8.01 -3.48 C11.27 -4.04, 16.78 -4.03, 19.53 -3.32 C22.29 -2.62, 23.69 0.07, 24.52 0.75" stroke="#1e1e1e" stroke-width="2" fill="none"></path></g></g><mask></mask><g stroke-linecap="round"><g transform="translate(21.52721842130677 136.7446587635627) rotate(0 14.46959880421565 0.538239075853653)"><path d="M0 0 C1.1 0.18, 4.02 1.11, 6.59 1.11 C9.16 1.1, 12.56 0.03, 15.41 -0.03 C18.27 -0.08, 21.48 0.72, 23.74 0.76 C25.99 0.79, 28.07 0.28, 28.94 0.18 M0 0 C1.1 0.18, 4.02 1.11, 6.59 1.11 C9.16 1.1, 12.56 0.03, 15.41 -0.03 C18.27 -0.08, 21.48 0.72, 23.74 0.76 C25.99 0.79, 28.07 0.28, 28.94 0.18" stroke="#1e1e1e" stroke-width="2" fill="none"></path></g></g><mask></mask><g stroke-linecap="round"><g transform="translate(34.516715900298664 131.34654371971737) rotate(0 0.6440364807781975 5.69275652758779)"><path d="M0 0 C0.21 0.45, 1.08 0.8, 1.25 2.7 C1.41 4.59, 1.04 9.94, 1 11.39 M0 0 C0.21 0.45, 1.08 0.8, 1.25 2.7 C1.41 4.59, 1.04 9.94, 1 11.39" stroke="#1e1e1e" stroke-width="2" fill="none"></path></g></g><mask></mask></svg>