<?xml version="1.0" standalone="no"?>
<!DOCTYPE svg PUBLIC "-//W3C//DTD SVG 1.1//EN" "http://www.w3.org/Graphics/SVG/1.1/DTD/svg11.dtd">
<svg version="1.1" xmlns="http://www.w3.org/2000/svg" viewBox="0 0 94.40813999899024 136.64782465921144" width="188.81627999798047" height="273.2956493184229"><!-- svg-source:excalidraw --><metadata></metadata><defs><style class="style-fonts">
      </style></defs><g stroke-linecap="round"><g transform="translate(23.719651105694993 11.29297180965068) rotate(0 23.062678079130592 57.57184089511895)" fill-rule="evenodd"><path d="M0 0 C-0.96 2.4, -4.47 7.9, -5.75 14.39 C-7.04 20.89, -7.26 30.47, -7.7 38.97 C-8.14 47.46, -7.96 58.42, -8.4 65.36 C-8.83 72.3, -9.55 74.69, -10.3 80.62 C-11.05 86.55, -14.8 95.26, -12.9 100.93 C-11 106.6, -5.29 112.81, 1.09 114.62 C7.47 116.42, 17.71 111.69, 25.38 111.77 C33.05 111.85, 41.64 116.53, 47.11 115.08 C52.58 113.62, 56.24 109.01, 58.21 103.05 C60.18 97.09, 59.58 85.43, 58.92 79.34 C58.26 73.25, 55 74.66, 54.25 66.5 C53.5 58.34, 54.77 40.57, 54.41 30.39 C54.05 20.21, 53.84 10.14, 52.09 5.45 C50.34 0.75, 46.97 -2.14, 43.92 2.24 C40.88 6.61, 36.1 25.75, 33.83 31.72 C31.55 37.68, 31.9 39.3, 30.27 38.01 C28.65 36.71, 26.22 29.92, 24.05 23.97 C21.87 18.01, 19.66 4.8, 17.23 2.27 C14.8 -0.27, 11.33 9.05, 9.44 8.77 C7.55 8.5, 7.46 2.07, 5.89 0.61 C4.31 -0.85, 0.98 0.1, 0 0" stroke="none" stroke-width="0" fill="#b2f2bb" fill-rule="evenodd"></path><path d="M0 0 C-0.96 2.4, -4.47 7.9, -5.75 14.39 C-7.04 20.89, -7.26 30.47, -7.7 38.97 C-8.14 47.46, -7.96 58.42, -8.4 65.36 C-8.83 72.3, -9.55 74.69, -10.3 80.62 C-11.05 86.55, -14.8 95.26, -12.9 100.93 C-11 106.6, -5.29 112.81, 1.09 114.62 C7.47 116.42, 17.71 111.69, 25.38 111.77 C33.05 111.85, 41.64 116.53, 47.11 115.08 C52.58 113.62, 56.24 109.01, 58.21 103.05 C60.18 97.09, 59.58 85.43, 58.92 79.34 C58.26 73.25, 55 74.66, 54.25 66.5 C53.5 58.34, 54.77 40.57, 54.41 30.39 C54.05 20.21, 53.84 10.14, 52.09 5.45 C50.34 0.75, 46.97 -2.14, 43.92 2.24 C40.88 6.61, 36.1 25.75, 33.83 31.72 C31.55 37.68, 31.9 39.3, 30.27 38.01 C28.65 36.71, 26.22 29.92, 24.05 23.97 C21.87 18.01, 19.66 4.8, 17.23 2.27 C14.8 -0.27, 11.33 9.05, 9.44 8.77 C7.55 8.5, 7.46 2.07, 5.89 0.61 C4.31 -0.85, 0.98 0.1, 0 0 M0 0 C-0.96 2.4, -4.47 7.9, -5.75 14.39 C-7.04 20.89, -7.26 30.47, -7.7 38.97 C-8.14 47.46, -7.96 58.42, -8.4 65.36 C-8.83 72.3, -9.55 74.69, -10.3 80.62 C-11.05 86.55, -14.8 95.26, -12.9 100.93 C-11 106.6, -5.29 112.81, 1.09 114.62 C7.47 116.42, 17.71 111.69, 25.38 111.77 C33.05 111.85, 41.64 116.53, 47.11 115.08 C52.58 113.62, 56.24 109.01, 58.21 103.05 C60.18 97.09, 59.58 85.43, 58.92 79.34 C58.26 73.25, 55 74.66, 54.25 66.5 C53.5 58.34, 54.77 40.57, 54.41 30.39 C54.05 20.21, 53.84 10.14, 52.09 5.45 C50.34 0.75, 46.97 -2.14, 43.92 2.24 C40.88 6.61, 36.1 25.75, 33.83 31.72 C31.55 37.68, 31.9 39.3, 30.27 38.01 C28.65 36.71, 26.22 29.92, 24.05 23.97 C21.87 18.01, 19.66 4.8, 17.23 2.27 C14.8 -0.27, 11.33 9.05, 9.44 8.77 C7.55 8.5, 7.46 2.07, 5.89 0.61 C4.31 -0.85, 0.98 0.1, 0 0" stroke="transparent" stroke-width="2" fill="none"></path></g></g><mask></mask><g stroke-linecap="round"><g transform="translate(15.645348264326003 48.42258425415184) rotate(0 31.55872173516906 19.81493928605198)"><path d="M0 0 C0.16 4.18, 1.31 18.54, 0.94 25.07 C0.56 31.6, -1.2 34.21, -2.27 39.17 C-3.34 44.13, -5.2 50.05, -5.47 54.84 C-5.74 59.64, -5.97 64.26, -3.9 67.96 C-1.82 71.65, 2.66 75.53, 6.98 77 C11.29 78.48, 17.71 77.4, 21.99 76.82 C26.27 76.23, 28.97 73.43, 32.65 73.5 C36.33 73.58, 39.61 76.71, 44.07 77.27 C48.52 77.82, 55.48 78.92, 59.4 76.82 C63.32 74.71, 66.14 70.22, 67.59 64.63 C69.04 59.05, 69.05 49.64, 68.13 43.33 C67.2 37.02, 63.01 32.19, 62.04 26.76 C61.07 21.33, 62.02 17.24, 62.29 10.75 C62.55 4.25, 64.04 -4.53, 63.63 -12.19 C63.22 -19.86, 61.94 -31.68, 59.84 -35.25 C57.74 -38.82, 54.06 -38.45, 51.01 -33.62 C47.97 -28.8, 44.54 -12.83, 41.6 -6.29 C38.66 0.25, 36.27 4.78, 33.38 5.63 C30.48 6.48, 26.83 4.37, 24.21 -1.2 C21.6 -6.76, 19.77 -21.55, 17.69 -27.75 C15.62 -33.96, 14.2 -38.41, 11.76 -38.42 C9.31 -38.44, 4.97 -34.25, 3.01 -27.85 C1.05 -21.45, 0.5 -4.64, 0 0 M0 0 C0.16 4.18, 1.31 18.54, 0.94 25.07 C0.56 31.6, -1.2 34.21, -2.27 39.17 C-3.34 44.13, -5.2 50.05, -5.47 54.84 C-5.74 59.64, -5.97 64.26, -3.9 67.96 C-1.82 71.65, 2.66 75.53, 6.98 77 C11.29 78.48, 17.71 77.4, 21.99 76.82 C26.27 76.23, 28.97 73.43, 32.65 73.5 C36.33 73.58, 39.61 76.71, 44.07 77.27 C48.52 77.82, 55.48 78.92, 59.4 76.82 C63.32 74.71, 66.14 70.22, 67.59 64.63 C69.04 59.05, 69.05 49.64, 68.13 43.33 C67.2 37.02, 63.01 32.19, 62.04 26.76 C61.07 21.33, 62.02 17.24, 62.29 10.75 C62.55 4.25, 64.04 -4.53, 63.63 -12.19 C63.22 -19.86, 61.94 -31.68, 59.84 -35.25 C57.74 -38.82, 54.06 -38.45, 51.01 -33.62 C47.97 -28.8, 44.54 -12.83, 41.6 -6.29 C38.66 0.25, 36.27 4.78, 33.38 5.63 C30.48 6.48, 26.83 4.37, 24.21 -1.2 C21.6 -6.76, 19.77 -21.55, 17.69 -27.75 C15.62 -33.96, 14.2 -38.41, 11.76 -38.42 C9.31 -38.44, 4.97 -34.25, 3.01 -27.85 C1.05 -21.45, 0.5 -4.64, 0 0" stroke="#1e1e1e" stroke-width="2" fill="none"></path></g></g><mask></mask><g stroke-linecap="round"><g transform="translate(33.2153192180474 19.312687202536836) rotate(0 10.004587200896026 11.820196191271862)"><path d="M0 0 C1.48 -1.03, 6.45 -8.58, 8.87 -6.16 C11.29 -3.74, 12.66 8.45, 14.52 14.52 C16.38 20.6, 19.09 27.65, 20.01 30.28 M0 0 C1.48 -1.03, 6.45 -8.58, 8.87 -6.16 C11.29 -3.74, 12.66 8.45, 14.52 14.52 C16.38 20.6, 19.09 27.65, 20.01 30.28" stroke="#1e1e1e" stroke-width="2" fill="none"></path></g></g><mask></mask><g stroke-linecap="round"><g transform="translate(24.006496722566226 111.90823222509107) rotate(0 21.4904633759607 2.1270278383813093)"><path d="M0 0 C0.66 0.59, 0.38 3.41, 3.94 3.51 C7.51 3.62, 16.07 0.51, 21.4 0.62 C26.72 0.73, 32.3 3.75, 35.9 4.17 C39.5 4.59, 41.8 3.31, 42.98 3.14 M0 0 C0.66 0.59, 0.38 3.41, 3.94 3.51 C7.51 3.62, 16.07 0.51, 21.4 0.62 C26.72 0.73, 32.3 3.75, 35.9 4.17 C39.5 4.59, 41.8 3.31, 42.98 3.14" stroke="#1e1e1e" stroke-width="2" fill="none"></path></g></g><mask></mask><g stroke-linecap="round"><g transform="translate(46.909663255161604 107.50396623614324) rotate(0 -1.7678632718682934 5.971713750992194)"><path d="M0 0 C-0.08 1.06, 0.11 4.39, -0.48 6.38 C-1.07 8.37, -3.03 11.02, -3.54 11.94 M0 0 C-0.08 1.06, 0.11 4.39, -0.48 6.38 C-1.07 8.37, -3.03 11.02, -3.54 11.94" stroke="#1e1e1e" stroke-width="2" fill="none"></path></g></g><mask></mask><g stroke-linecap="round"><g transform="translate(26.13424417968099 76.92134257437237) rotate(0 22.14976540492586 -2.1052381686754416)"><path d="M0 0 C1.87 -0.56, 5.14 -2.68, 11.22 -3.35 C17.3 -4.01, 30.97 -4.53, 36.48 -3.98 C42 -3.44, 43 -0.74, 44.3 -0.09 M0 0 C1.87 -0.56, 5.14 -2.68, 11.22 -3.35 C17.3 -4.01, 30.97 -4.53, 36.48 -3.98 C42 -3.44, 43 -0.74, 44.3 -0.09" stroke="#1e1e1e" stroke-width="2" fill="none"></path></g></g><mask></mask></svg>