<?xml version="1.0" standalone="no"?>
<!DOCTYPE svg PUBLIC "-//W3C//DTD SVG 1.1//EN" "http://www.w3.org/Graphics/SVG/1.1/DTD/svg11.dtd">
<svg version="1.1" xmlns="http://www.w3.org/2000/svg" viewBox="0 0 92.67121669131086 130.90071764271852" width="185.34243338262172" height="261.80143528543704"><!-- svg-source:excalidraw --><metadata></metadata><defs><style class="style-fonts">
      </style></defs><g stroke-linecap="round"><g transform="translate(35.51519276001602 10.475900164169843) rotate(0 10.650013260843025 54.749395362567384)" fill-rule="evenodd"><path d="M0 0 C-1.96 2.2, -8.62 7.46, -11.74 13.2 C-14.86 18.94, -17.47 26.51, -18.71 34.44 C-19.95 42.37, -18.53 54.07, -19.2 60.77 C-19.86 67.48, -21.69 68.98, -22.7 74.66 C-23.72 80.34, -26.23 89.41, -25.3 94.86 C-24.37 100.3, -22.5 105.22, -17.12 107.34 C-11.74 109.46, -1.64 107.32, 7 107.58 C15.63 107.85, 28.31 110.69, 34.71 108.92 C41.11 107.15, 43.49 102.95, 45.41 96.97 C47.32 90.98, 46.95 78.88, 46.18 73.04 C45.4 67.19, 41.78 68.78, 40.77 61.9 C39.76 55.01, 41.26 40.93, 40.09 31.73 C38.92 22.52, 36.48 11.05, 33.75 6.67 C31.03 2.29, 25.81 2.1, 23.76 5.45 C21.7 8.8, 22.42 22.29, 21.44 26.77 C20.46 31.24, 19.15 33.81, 17.87 32.28 C16.6 30.76, 14.73 22.39, 13.77 17.63 C12.82 12.88, 13.61 5.67, 12.15 3.73 C10.69 1.8, 6.37 6.51, 5 6.02 C3.63 5.53, 4.74 1.79, 3.91 0.79 C3.08 -0.22, 0.65 0.13, 0 0" stroke="none" stroke-width="0" fill="#b2f2bb" fill-rule="evenodd"></path><path d="M0 0 C-1.96 2.2, -8.62 7.46, -11.74 13.2 C-14.86 18.94, -17.47 26.51, -18.71 34.44 C-19.95 42.37, -18.53 54.07, -19.2 60.77 C-19.86 67.48, -21.69 68.98, -22.7 74.66 C-23.72 80.34, -26.23 89.41, -25.3 94.86 C-24.37 100.3, -22.5 105.22, -17.12 107.34 C-11.74 109.46, -1.64 107.32, 7 107.58 C15.63 107.85, 28.31 110.69, 34.71 108.92 C41.11 107.15, 43.49 102.95, 45.41 96.97 C47.32 90.98, 46.95 78.88, 46.18 73.04 C45.4 67.19, 41.78 68.78, 40.77 61.9 C39.76 55.01, 41.26 40.93, 40.09 31.73 C38.92 22.52, 36.48 11.05, 33.75 6.67 C31.03 2.29, 25.81 2.1, 23.76 5.45 C21.7 8.8, 22.42 22.29, 21.44 26.77 C20.46 31.24, 19.15 33.81, 17.87 32.28 C16.6 30.76, 14.73 22.39, 13.77 17.63 C12.82 12.88, 13.61 5.67, 12.15 3.73 C10.69 1.8, 6.37 6.51, 5 6.02 C3.63 5.53, 4.74 1.79, 3.91 0.79 C3.08 -0.22, 0.65 0.13, 0 0 M0 0 C-1.96 2.2, -8.62 7.46, -11.74 13.2 C-14.86 18.94, -17.47 26.51, -18.71 34.44 C-19.95 42.37, -18.53 54.07, -19.2 60.77 C-19.86 67.48, -21.69 68.98, -22.7 74.66 C-23.72 80.34, -26.23 89.41, -25.3 94.86 C-24.37 100.3, -22.5 105.22, -17.12 107.34 C-11.74 109.46, -1.64 107.32, 7 107.58 C15.63 107.85, 28.31 110.69, 34.71 108.92 C41.11 107.15, 43.49 102.95, 45.41 96.97 C47.32 90.98, 46.95 78.88, 46.18 73.04 C45.4 67.19, 41.78 68.78, 40.77 61.9 C39.76 55.01, 41.26 40.93, 40.09 31.73 C38.92 22.52, 36.48 11.05, 33.75 6.67 C31.03 2.29, 25.81 2.1, 23.76 5.45 C21.7 8.8, 22.42 22.29, 21.44 26.77 C20.46 31.24, 19.15 33.81, 17.87 32.28 C16.6 30.76, 14.73 22.39, 13.77 17.63 C12.82 12.88, 13.61 5.67, 12.15 3.73 C10.69 1.8, 6.37 6.51, 5 6.02 C3.63 5.53, 4.74 1.79, 3.91 0.79 C3.08 -0.22, 0.65 0.13, 0 0" stroke="transparent" stroke-width="2" fill="none"></path></g></g><mask></mask><g stroke-linecap="round"><g transform="translate(15.938845064740235 71.20965245377306) rotate(0 30.396763280915195 -5.7592936324135735)"><path d="M0 0 C-0.75 2.72, -3.63 10.1, -4.52 16.29 C-5.4 22.48, -6.74 31.8, -5.31 37.16 C-3.87 42.51, -0.89 46.75, 4.09 48.43 C9.08 50.1, 19.23 47.35, 24.6 47.22 C29.98 47.08, 31.18 47.27, 36.33 47.61 C41.48 47.94, 50.73 50.77, 55.5 49.24 C60.26 47.71, 63.1 43.98, 64.91 38.42 C66.72 32.85, 67.15 22.61, 66.35 15.84 C65.54 9.07, 61.35 6.74, 60.1 -2.21 C58.84 -11.17, 60.66 -28.5, 58.81 -37.92 C56.96 -47.34, 51.67 -56.36, 49.01 -58.73 C46.36 -61.11, 44.4 -56.55, 42.86 -52.15 C41.31 -47.75, 41.61 -37.71, 39.75 -32.35 C37.89 -26.99, 34.38 -20.47, 31.7 -19.99 C29.02 -19.51, 24.99 -22.86, 23.68 -29.44 C22.37 -36.03, 25.77 -55.34, 23.85 -59.52 C21.92 -63.7, 15.87 -59.39, 12.12 -54.52 C8.38 -49.66, 3.39 -39.42, 1.37 -30.33 C-0.65 -21.25, 0.23 -5.06, 0 0 M0 0 C-0.75 2.72, -3.63 10.1, -4.52 16.29 C-5.4 22.48, -6.74 31.8, -5.31 37.16 C-3.87 42.51, -0.89 46.75, 4.09 48.43 C9.08 50.1, 19.23 47.35, 24.6 47.22 C29.98 47.08, 31.18 47.27, 36.33 47.61 C41.48 47.94, 50.73 50.77, 55.5 49.24 C60.26 47.71, 63.1 43.98, 64.91 38.42 C66.72 32.85, 67.15 22.61, 66.35 15.84 C65.54 9.07, 61.35 6.74, 60.1 -2.21 C58.84 -11.17, 60.66 -28.5, 58.81 -37.92 C56.96 -47.34, 51.67 -56.36, 49.01 -58.73 C46.36 -61.11, 44.4 -56.55, 42.86 -52.15 C41.31 -47.75, 41.61 -37.71, 39.75 -32.35 C37.89 -26.99, 34.38 -20.47, 31.7 -19.99 C29.02 -19.51, 24.99 -22.86, 23.68 -29.44 C22.37 -36.03, 25.77 -55.34, 23.85 -59.52 C21.92 -63.7, 15.87 -59.39, 12.12 -54.52 C8.38 -49.66, 3.39 -39.42, 1.37 -30.33 C-0.65 -21.25, 0.23 -5.06, 0 0" stroke="#1e1e1e" stroke-width="2" fill="none"></path></g></g><mask></mask><g stroke-linecap="round"><g transform="translate(40.68197035143453 16.125422680775273) rotate(0 6.358348722888195 12.178805081387509)"><path d="M0 0 C1.17 -0.3, 5.52 -4.31, 7.01 -1.82 C8.5 0.67, 7.99 10.14, 8.94 14.94 C9.89 19.74, 12.09 24.98, 12.72 26.99 M0 0 C1.17 -0.3, 5.52 -4.31, 7.01 -1.82 C8.5 0.67, 7.99 10.14, 8.94 14.94 C9.89 19.74, 12.09 24.98, 12.72 26.99" stroke="#1e1e1e" stroke-width="2" fill="none"></path></g></g><mask></mask><g stroke-linecap="round"><g transform="translate(24.728516468368298 71.31337172082453) rotate(0 22.619741533303227 -1.1978662429464748)"><path d="M0 0 C1.67 -0.54, 4.37 -2.69, 10.04 -3.24 C15.7 -3.78, 28.11 -4.05, 33.98 -3.28 C39.84 -2.51, 43.36 0.59, 45.24 1.36 M0 0 C1.67 -0.54, 4.37 -2.69, 10.04 -3.24 C15.7 -3.78, 28.11 -4.05, 33.98 -3.28 C39.84 -2.51, 43.36 0.59, 45.24 1.36" stroke="#1e1e1e" stroke-width="2" fill="none"></path></g></g><mask></mask><g stroke-linecap="round"><g transform="translate(23.966716334508988 107.31111044051727) rotate(0 20.441636925226476 1.1923423353964608)"><path d="M0 0 C1.42 0.2, 6 1.13, 8.54 1.21 C11.08 1.29, 12.5 0.73, 15.22 0.51 C17.94 0.28, 21.74 -0.33, 24.87 -0.13 C28 0.08, 31.33 1.28, 34 1.73 C36.67 2.18, 39.74 2.41, 40.88 2.55 M0 0 C1.42 0.2, 6 1.13, 8.54 1.21 C11.08 1.29, 12.5 0.73, 15.22 0.51 C17.94 0.28, 21.74 -0.33, 24.87 -0.13 C28 0.08, 31.33 1.28, 34 1.73 C36.67 2.18, 39.74 2.41, 40.88 2.55" stroke="#1e1e1e" stroke-width="2" fill="none"></path></g></g><mask></mask><g stroke-linecap="round"><g transform="translate(44.525305674651804 99.70383868127351) rotate(0 -1.063886027323349 6.569006130795742)"><path d="M0 0 C0.03 1.67, 0.59 7.83, 0.18 10.02 C-0.23 12.21, -2.02 12.62, -2.46 13.14 M0 0 C0.03 1.67, 0.59 7.83, 0.18 10.02 C-0.23 12.21, -2.02 12.62, -2.46 13.14" stroke="#1e1e1e" stroke-width="2" fill="none"></path></g></g><mask></mask></svg>