<?xml version="1.0" standalone="no"?>
<!DOCTYPE svg PUBLIC "-//W3C//DTD SVG 1.1//EN" "http://www.w3.org/Graphics/SVG/1.1/DTD/svg11.dtd">
<svg version="1.1" xmlns="http://www.w3.org/2000/svg" viewBox="0 0 91.93646120323285 123.41465530824826" width="183.8729224064657" height="246.8293106164965"><!-- svg-source:excalidraw --><metadata></metadata><defs><style class="style-fonts">
      </style></defs><g stroke-linecap="round"><g transform="translate(33.385589796340696 10) rotate(0 12.477372138931742 51.690242519529875)" fill-rule="evenodd"><path d="M0 0 C-1.6 1.21, -7.19 2.45, -9.62 7.24 C-12.06 12.04, -13.38 20.85, -14.62 28.78 C-15.87 36.71, -16.09 48.16, -17.08 54.82 C-18.08 61.47, -19.57 63.02, -20.59 68.7 C-21.6 74.38, -24.11 83.45, -23.18 88.9 C-22.25 94.35, -21.15 99.41, -15 101.38 C-8.86 103.35, 5.05 100.45, 13.69 100.71 C22.33 100.97, 31.19 104.58, 36.82 102.97 C42.46 101.35, 45.81 96.79, 47.52 91.01 C49.23 85.23, 47.85 74.13, 47.08 68.29 C46.31 62.45, 43.74 62.99, 42.89 55.94 C42.04 48.89, 42.65 33.61, 41.99 25.97 C41.32 18.33, 40.35 14.06, 38.9 10.1 C37.45 6.13, 35.23 2.36, 33.31 2.16 C31.38 1.95, 28.71 5.81, 27.33 8.87 C25.94 11.93, 25.75 19.29, 25 20.52 C24.25 21.74, 24.13 18.61, 22.81 16.24 C21.5 13.86, 18.86 7.68, 17.11 6.26 C15.36 4.85, 14.18 5.25, 12.33 7.73 C10.49 10.22, 7.53 20.75, 6.04 21.17 C4.54 21.59, 4.37 13.78, 3.36 10.25 C2.35 6.72, 0.56 1.71, 0 0" stroke="none" stroke-width="0" fill="#b2f2bb" fill-rule="evenodd"></path><path d="M0 0 C-1.6 1.21, -7.19 2.45, -9.62 7.24 C-12.06 12.04, -13.38 20.85, -14.62 28.78 C-15.87 36.71, -16.09 48.16, -17.08 54.82 C-18.08 61.47, -19.57 63.02, -20.59 68.7 C-21.6 74.38, -24.11 83.45, -23.18 88.9 C-22.25 94.35, -21.15 99.41, -15 101.38 C-8.86 103.35, 5.05 100.45, 13.69 100.71 C22.33 100.97, 31.19 104.58, 36.82 102.97 C42.46 101.35, 45.81 96.79, 47.52 91.01 C49.23 85.23, 47.85 74.13, 47.08 68.29 C46.31 62.45, 43.74 62.99, 42.89 55.94 C42.04 48.89, 42.65 33.61, 41.99 25.97 C41.32 18.33, 40.35 14.06, 38.9 10.1 C37.45 6.13, 35.23 2.36, 33.31 2.16 C31.38 1.95, 28.71 5.81, 27.33 8.87 C25.94 11.93, 25.75 19.29, 25 20.52 C24.25 21.74, 24.13 18.61, 22.81 16.24 C21.5 13.86, 18.86 7.68, 17.11 6.26 C15.36 4.85, 14.18 5.25, 12.33 7.73 C10.49 10.22, 7.53 20.75, 6.04 21.17 C4.54 21.59, 4.37 13.78, 3.36 10.25 C2.35 6.72, 0.56 1.71, 0 0 M0 0 C-1.6 1.21, -7.19 2.45, -9.62 7.24 C-12.06 12.04, -13.38 20.85, -14.62 28.78 C-15.87 36.71, -16.09 48.16, -17.08 54.82 C-18.08 61.47, -19.57 63.02, -20.59 68.7 C-21.6 74.38, -24.11 83.45, -23.18 88.9 C-22.25 94.35, -21.15 99.41, -15 101.38 C-8.86 103.35, 5.05 100.45, 13.69 100.71 C22.33 100.97, 31.19 104.58, 36.82 102.97 C42.46 101.35, 45.81 96.79, 47.52 91.01 C49.23 85.23, 47.85 74.13, 47.08 68.29 C46.31 62.45, 43.74 62.99, 42.89 55.94 C42.04 48.89, 42.65 33.61, 41.99 25.97 C41.32 18.33, 40.35 14.06, 38.9 10.1 C37.45 6.13, 35.23 2.36, 33.31 2.16 C31.38 1.95, 28.71 5.81, 27.33 8.87 C25.94 11.93, 25.75 19.29, 25 20.52 C24.25 21.74, 24.13 18.61, 22.81 16.24 C21.5 13.86, 18.86 7.68, 17.11 6.26 C15.36 4.85, 14.18 5.25, 12.33 7.73 C10.49 10.22, 7.53 20.75, 6.04 21.17 C4.54 21.59, 4.37 13.78, 3.36 10.25 C2.35 6.72, 0.56 1.71, 0 0" stroke="transparent" stroke-width="2" fill="none"></path></g></g><mask></mask><g stroke-linecap="round"><g transform="translate(16.63908030907305 66.00018822449556) rotate(0 29.691630465433605 -3.9976041261162436)"><path d="M0 0 C-0.89 3.58, -4.56 15.15, -5.31 21.49 C-6.06 27.84, -6.41 33.8, -4.53 38.07 C-2.64 42.34, 0.31 46, 5.99 47.14 C11.67 48.28, 21.98 44.91, 29.56 44.92 C37.14 44.93, 45.88 48.3, 51.48 47.19 C57.09 46.07, 60.95 43.04, 63.19 38.23 C65.43 33.41, 65.67 25.41, 64.91 18.29 C64.16 11.17, 59.69 4.44, 58.66 -4.51 C57.63 -13.45, 59.96 -27.13, 58.74 -35.37 C57.52 -43.6, 53.95 -52.27, 51.35 -53.93 C48.76 -55.59, 45.35 -51.12, 43.15 -45.34 C40.96 -39.55, 41.34 -23.59, 38.19 -19.21 C35.04 -14.83, 27.14 -14.9, 24.25 -19.06 C21.36 -23.22, 22.29 -38.11, 20.86 -44.17 C19.42 -50.22, 18.33 -55.51, 15.64 -55.41 C12.95 -55.3, 7.33 -52.77, 4.72 -43.54 C2.11 -34.3, 0.79 -7.26, 0 0 M0 0 C-0.89 3.58, -4.56 15.15, -5.31 21.49 C-6.06 27.84, -6.41 33.8, -4.53 38.07 C-2.64 42.34, 0.31 46, 5.99 47.14 C11.67 48.28, 21.98 44.91, 29.56 44.92 C37.14 44.93, 45.88 48.3, 51.48 47.19 C57.09 46.07, 60.95 43.04, 63.19 38.23 C65.43 33.41, 65.67 25.41, 64.91 18.29 C64.16 11.17, 59.69 4.44, 58.66 -4.51 C57.63 -13.45, 59.96 -27.13, 58.74 -35.37 C57.52 -43.6, 53.95 -52.27, 51.35 -53.93 C48.76 -55.59, 45.35 -51.12, 43.15 -45.34 C40.96 -39.55, 41.34 -23.59, 38.19 -19.21 C35.04 -14.83, 27.14 -14.9, 24.25 -19.06 C21.36 -23.22, 22.29 -38.11, 20.86 -44.17 C19.42 -50.22, 18.33 -55.51, 15.64 -55.41 C12.95 -55.3, 7.33 -52.77, 4.72 -43.54 C2.11 -34.3, 0.79 -7.26, 0 0" stroke="#1e1e1e" stroke-width="2" fill="none"></path></g></g><mask></mask><g stroke-linecap="round"><g transform="translate(23.644691257242357 100.08278233526107) rotate(0 22.353390611208454 0.6986750355756612)"><path d="M0 0 C1.42 0.32, 4.9 2.04, 8.54 1.9 C12.19 1.76, 17.81 -0.88, 21.87 -0.83 C25.92 -0.79, 29.07 1.85, 32.87 2.18 C36.68 2.5, 42.73 1.29, 44.71 1.11 M0 0 C1.42 0.32, 4.9 2.04, 8.54 1.9 C12.19 1.76, 17.81 -0.88, 21.87 -0.83 C25.92 -0.79, 29.07 1.85, 32.87 2.18 C36.68 2.5, 42.73 1.29, 44.71 1.11" stroke="#1e1e1e" stroke-width="2" fill="none"></path></g></g><mask></mask><g stroke-linecap="round"><g transform="translate(40.93311420730083 105.13958667856878) rotate(0 2.318680540375283 -6.886871779556259)"><path d="M0 0 C0.69 -0.79, 3.36 -2.47, 4.13 -4.77 C4.9 -7.06, 4.54 -12.27, 4.63 -13.77 M0 0 C0.69 -0.79, 3.36 -2.47, 4.13 -4.77 C4.9 -7.06, 4.54 -12.27, 4.63 -13.77" stroke="#1e1e1e" stroke-width="2" fill="none"></path></g></g><mask></mask><g stroke-linecap="round"><g transform="translate(24.593120366538983 65.56085330062751) rotate(0 22.75784590429663 -0.005480917470890745)"><path d="M0 0 C2.05 -0.46, 6.3 -2.49, 12.29 -2.79 C18.28 -3.08, 30.42 -2.73, 35.96 -1.79 C41.5 -0.84, 43.92 2.1, 45.52 2.88 M0 0 C2.05 -0.46, 6.3 -2.49, 12.29 -2.79 C18.28 -3.08, 30.42 -2.73, 35.96 -1.79 C41.5 -0.84, 43.92 2.1, 45.52 2.88" stroke="#1e1e1e" stroke-width="2" fill="none"></path></g></g><mask></mask><g stroke-linecap="round"><g transform="translate(38.688830781655156 32.71041376430412) rotate(0 9.525077119097432 -9.039317109146737)"><path d="M0 0 C1.61 -3.01, 6.51 -17.66, 9.69 -18.07 C12.86 -18.48, 17.49 -5.07, 19.05 -2.47 M0 0 C1.61 -3.01, 6.51 -17.66, 9.69 -18.07 C12.86 -18.48, 17.49 -5.07, 19.05 -2.47" stroke="#1e1e1e" stroke-width="2" fill="none"></path></g></g><mask></mask></svg>