<?xml version="1.0" standalone="no"?>
<!DOCTYPE svg PUBLIC "-//W3C//DTD SVG 1.1//EN" "http://www.w3.org/Graphics/SVG/1.1/DTD/svg11.dtd">
<svg version="1.1" xmlns="http://www.w3.org/2000/svg" viewBox="0 0 53.655069514778916 158.05938663464985" width="107.31013902955783" height="316.1187732692997"><!-- svg-source:excalidraw --><metadata></metadata><defs><style class="style-fonts">
      </style></defs><g stroke-linecap="round"><g transform="translate(26.803690717566724 10) rotate(0 0.023844039822733976 69.02969331732487)" fill-rule="evenodd"><path d="M0 0 C-2.45 0.45, -11.9 0.28, -14.68 2.72 C-17.46 5.15, -16.74 8.75, -16.67 14.59 C-16.59 20.43, -15.1 31.28, -14.21 37.75 C-13.31 44.22, -12.22 40.49, -11.3 53.41 C-10.37 66.34, -9.79 101.53, -8.65 115.31 C-7.52 129.09, -6.57 133.66, -4.46 136.08 C-2.36 138.5, 1.71 140.7, 3.99 129.83 C6.26 118.96, 7.85 84.57, 9.19 70.87 C10.53 57.17, 11.05 53.51, 12.03 47.62 C13 41.73, 14.42 42.63, 15.04 35.54 C15.67 28.44, 18.29 10.97, 15.79 5.05 C13.28 -0.87, 2.63 0.84, 0 0" stroke="none" stroke-width="0" fill="#b2f2bb" fill-rule="evenodd"></path><path d="M0 0 C-2.45 0.45, -11.9 0.28, -14.68 2.72 C-17.46 5.15, -16.74 8.75, -16.67 14.59 C-16.59 20.43, -15.1 31.28, -14.21 37.75 C-13.31 44.22, -12.22 40.49, -11.3 53.41 C-10.37 66.34, -9.79 101.53, -8.65 115.31 C-7.52 129.09, -6.57 133.66, -4.46 136.08 C-2.36 138.5, 1.71 140.7, 3.99 129.83 C6.26 118.96, 7.85 84.57, 9.19 70.87 C10.53 57.17, 11.05 53.51, 12.03 47.62 C13 41.73, 14.42 42.63, 15.04 35.54 C15.67 28.44, 18.29 10.97, 15.79 5.05 C13.28 -0.87, 2.63 0.84, 0 0 M0 0 C-2.45 0.45, -11.9 0.28, -14.68 2.72 C-17.46 5.15, -16.74 8.75, -16.67 14.59 C-16.59 20.43, -15.1 31.28, -14.21 37.75 C-13.31 44.22, -12.22 40.49, -11.3 53.41 C-10.37 66.34, -9.79 101.53, -8.65 115.31 C-7.52 129.09, -6.57 133.66, -4.46 136.08 C-2.36 138.5, 1.71 140.7, 3.99 129.83 C6.26 118.96, 7.85 84.57, 9.19 70.87 C10.53 57.17, 11.05 53.51, 12.03 47.62 C13 41.73, 14.42 42.63, 15.04 35.54 C15.67 28.44, 18.29 10.97, 15.79 5.05 C13.28 -0.87, 2.63 0.84, 0 0" stroke="#1e1e1e" stroke-width="2" fill="none"></path></g></g><mask></mask><g stroke-linecap="round"><g transform="translate(16.303541468933417 52.391300222388054) rotate(0 10.371077646573553 0.7376447038499805)"><path d="M0 0 C0.96 0.34, 3.23 1.72, 5.79 2.05 C8.34 2.38, 12.83 2.46, 15.32 1.98 C17.82 1.5, 19.84 -0.37, 20.74 -0.84 M0 0 C0.96 0.34, 3.23 1.72, 5.79 2.05 C8.34 2.38, 12.83 2.46, 15.32 1.98 C17.82 1.5, 19.84 -0.37, 20.74 -0.84" stroke="#1e1e1e" stroke-width="2" fill="none"></path></g></g><mask></mask></svg>