<?xml version="1.0" standalone="no"?>
<!DOCTYPE svg PUBLIC "-//W3C//DTD SVG 1.1//EN" "http://www.w3.org/Graphics/SVG/1.1/DTD/svg11.dtd">
<svg version="1.1" xmlns="http://www.w3.org/2000/svg" viewBox="0 0 52.69131953281135 160.9938505189267" width="105.3826390656227" height="321.9877010378534"><!-- svg-source:excalidraw --><metadata></metadata><defs><style class="style-fonts">
      </style></defs><g stroke-linecap="round"><g transform="translate(16.077767430890844 99.0278868021287) rotate(0 10.267892335514716 -18.530961542665295)" fill-rule="evenodd"><path d="M0 0 C-0.01 4.5, 0.01 18.77, -0.03 27.03 C-0.07 35.28, -1.6 46.28, -0.23 49.55 C1.14 52.82, 5.48 53.56, 8.19 46.67 C10.89 39.79, 13.5 22.56, 16.01 8.22 C18.52 -6.11, 21.55 -28.56, 23.27 -39.33 C25 -50.09, 26.13 -48.74, 26.35 -56.36 C26.56 -63.98, 27.34 -79.65, 24.58 -85.02 C21.83 -90.4, 14.7 -88.63, 9.82 -88.6 C4.95 -88.57, -2.19 -90.94, -4.66 -84.84 C-7.13 -78.74, -5.77 -60.55, -5.02 -52 C-4.26 -43.45, -0.96 -42.21, -0.12 -33.54 C0.71 -24.88, -0.02 -5.59, 0 0" stroke="none" stroke-width="0" fill="#b2f2bb" fill-rule="evenodd"></path><path d="M0 0 C-0.01 4.5, 0.01 18.77, -0.03 27.03 C-0.07 35.28, -1.6 46.28, -0.23 49.55 C1.14 52.82, 5.48 53.56, 8.19 46.67 C10.89 39.79, 13.5 22.56, 16.01 8.22 C18.52 -6.11, 21.55 -28.56, 23.27 -39.33 C25 -50.09, 26.13 -48.74, 26.35 -56.36 C26.56 -63.98, 27.34 -79.65, 24.58 -85.02 C21.83 -90.4, 14.7 -88.63, 9.82 -88.6 C4.95 -88.57, -2.19 -90.94, -4.66 -84.84 C-7.13 -78.74, -5.77 -60.55, -5.02 -52 C-4.26 -43.45, -0.96 -42.21, -0.12 -33.54 C0.71 -24.88, -0.02 -5.59, 0 0 M0 0 C-0.01 4.5, 0.01 18.77, -0.03 27.03 C-0.07 35.28, -1.6 46.28, -0.23 49.55 C1.14 52.82, 5.48 53.56, 8.19 46.67 C10.89 39.79, 13.5 22.56, 16.01 8.22 C18.52 -6.11, 21.55 -28.56, 23.27 -39.33 C25 -50.09, 26.13 -48.74, 26.35 -56.36 C26.56 -63.98, 27.34 -79.65, 24.58 -85.02 C21.83 -90.4, 14.7 -88.63, 9.82 -88.6 C4.95 -88.57, -2.19 -90.94, -4.66 -84.84 C-7.13 -78.74, -5.77 -60.55, -5.02 -52 C-4.26 -43.45, -0.96 -42.21, -0.12 -33.54 C0.71 -24.88, -0.02 -5.59, 0 0" stroke="#1e1e1e" stroke-width="2" fill="none"></path></g></g><mask></mask><g stroke-linecap="round"><g transform="translate(17.06896711587092 53.406180900132085) rotate(0 9.879507748014362 0.5796519002247464)"><path d="M0 0 C0.98 0.38, 3.24 1.98, 5.86 2.29 C8.48 2.6, 13.41 2.46, 15.72 1.87 C18.04 1.27, 19.09 -0.77, 19.76 -1.29 M0 0 C0.98 0.38, 3.24 1.98, 5.86 2.29 C8.48 2.6, 13.41 2.46, 15.72 1.87 C18.04 1.27, 19.09 -0.77, 19.76 -1.29" stroke="#1e1e1e" stroke-width="2" fill="none"></path></g></g><mask></mask></svg>