<?xml version="1.0" standalone="no"?>
<!DOCTYPE svg PUBLIC "-//W3C//DTD SVG 1.1//EN" "http://www.w3.org/Graphics/SVG/1.1/DTD/svg11.dtd">
<svg version="1.1" xmlns="http://www.w3.org/2000/svg" viewBox="0 0 60.49788213943407 170.77646022988972" width="120.99576427886814" height="341.55292045977944"><!-- svg-source:excalidraw --><metadata></metadata><defs><style class="style-fonts">
      </style></defs><g stroke-linecap="round"><g transform="translate(10.112049519120092 31.820503050940488) rotate(0 20.136891550596943 53.56772706400443)" fill-rule="evenodd"><path d="M0 0 C0.23 3.54, 0.27 14.64, 1.39 21.26 C2.52 27.87, 6.02 27.47, 6.75 39.68 C7.49 51.9, 6.29 80.56, 5.79 94.55 C5.29 108.54, 3.27 118.07, 3.76 123.61 C4.25 129.15, 6.4 130.08, 8.75 127.79 C11.1 125.51, 14.19 122.92, 17.85 109.91 C21.51 96.9, 27.93 63.46, 30.73 49.74 C33.54 36.02, 33.35 33.31, 34.68 27.59 C36.01 21.87, 38 21.9, 38.72 15.42 C39.45 8.94, 41.87 -5.1, 39.05 -11.3 C36.23 -17.51, 27.95 -21.87, 21.81 -21.82 C15.68 -21.77, 5.87 -14.64, 2.24 -11 C-1.4 -7.36, 0.37 -1.83, 0 0" stroke="none" stroke-width="0" fill="#b2f2bb" fill-rule="evenodd"></path><path d="M0 0 C0.23 3.54, 0.27 14.64, 1.39 21.26 C2.52 27.87, 6.02 27.47, 6.75 39.68 C7.49 51.9, 6.29 80.56, 5.79 94.55 C5.29 108.54, 3.27 118.07, 3.76 123.61 C4.25 129.15, 6.4 130.08, 8.75 127.79 C11.1 125.51, 14.19 122.92, 17.85 109.91 C21.51 96.9, 27.93 63.46, 30.73 49.74 C33.54 36.02, 33.35 33.31, 34.68 27.59 C36.01 21.87, 38 21.9, 38.72 15.42 C39.45 8.94, 41.87 -5.1, 39.05 -11.3 C36.23 -17.51, 27.95 -21.87, 21.81 -21.82 C15.68 -21.77, 5.87 -14.64, 2.24 -11 C-1.4 -7.36, 0.37 -1.83, 0 0 M0 0 C0.23 3.54, 0.27 14.64, 1.39 21.26 C2.52 27.87, 6.02 27.47, 6.75 39.68 C7.49 51.9, 6.29 80.56, 5.79 94.55 C5.29 108.54, 3.27 118.07, 3.76 123.61 C4.25 129.15, 6.4 130.08, 8.75 127.79 C11.1 125.51, 14.19 122.92, 17.85 109.91 C21.51 96.9, 27.93 63.46, 30.73 49.74 C33.54 36.02, 33.35 33.31, 34.68 27.59 C36.01 21.87, 38 21.9, 38.72 15.42 C39.45 8.94, 41.87 -5.1, 39.05 -11.3 C36.23 -17.51, 27.95 -21.87, 21.81 -21.82 C15.68 -21.77, 5.87 -14.64, 2.24 -11 C-1.4 -7.36, 0.37 -1.83, 0 0" stroke="#1e1e1e" stroke-width="2" fill="none"></path></g></g><mask></mask><g stroke-linecap="round"><g transform="translate(19.650266490241393 60.258988669601194) rotate(0 10.053195221230794 1.1940222787427501)"><path d="M0 0 C0.82 0.39, 2.42 1.96, 4.95 2.35 C7.47 2.73, 12.64 2.75, 15.16 2.32 C17.69 1.89, 19.28 0.18, 20.11 -0.25 M0 0 C0.82 0.39, 2.42 1.96, 4.95 2.35 C7.47 2.73, 12.64 2.75, 15.16 2.32 C17.69 1.89, 19.28 0.18, 20.11 -0.25" stroke="#1e1e1e" stroke-width="2" fill="none"></path></g></g><mask></mask></svg>