<?xml version="1.0" standalone="no"?>
<!DOCTYPE svg PUBLIC "-//W3C//DTD SVG 1.1//EN" "http://www.w3.org/Graphics/SVG/1.1/DTD/svg11.dtd">
<svg version="1.1" xmlns="http://www.w3.org/2000/svg" viewBox="0 0 66.06746772832412 166.88537149313868" width="132.13493545664824" height="333.77074298627736"><!-- svg-source:excalidraw --><metadata></metadata><defs><style class="style-fonts">
      </style></defs><g stroke-linecap="round"><g transform="translate(10 31.727754107564692) rotate(0 23.033733864162173 51.71493163900453)" fill-rule="evenodd"><path d="M0 0 C0.3 1.88, 0.26 5.01, 1.8 11.27 C3.34 17.53, 7.55 27.88, 9.25 37.55 C10.96 47.22, 11.5 55.28, 12.05 69.31 C12.6 83.34, 10.9 113.71, 12.57 121.73 C14.25 129.76, 19.56 121.71, 22.09 117.48 C24.61 113.24, 26 105.08, 27.71 96.31 C29.42 87.53, 30.73 75.56, 32.35 64.83 C33.97 54.11, 35.43 39.86, 37.44 31.95 C39.44 24.04, 43.14 24.19, 44.37 17.37 C45.61 10.56, 47.22 -2.6, 44.85 -8.94 C42.48 -15.28, 34.69 -18.78, 30.15 -20.66 C25.61 -22.54, 22.27 -21.65, 17.59 -20.2 C12.92 -18.74, 5.01 -15.29, 2.08 -11.92 C-0.85 -8.56, 0.35 -1.99, 0 0" stroke="none" stroke-width="0" fill="#b2f2bb" fill-rule="evenodd"></path><path d="M0 0 C0.3 1.88, 0.26 5.01, 1.8 11.27 C3.34 17.53, 7.55 27.88, 9.25 37.55 C10.96 47.22, 11.5 55.28, 12.05 69.31 C12.6 83.34, 10.9 113.71, 12.57 121.73 C14.25 129.76, 19.56 121.71, 22.09 117.48 C24.61 113.24, 26 105.08, 27.71 96.31 C29.42 87.53, 30.73 75.56, 32.35 64.83 C33.97 54.11, 35.43 39.86, 37.44 31.95 C39.44 24.04, 43.14 24.19, 44.37 17.37 C45.61 10.56, 47.22 -2.6, 44.85 -8.94 C42.48 -15.28, 34.69 -18.78, 30.15 -20.66 C25.61 -22.54, 22.27 -21.65, 17.59 -20.2 C12.92 -18.74, 5.01 -15.29, 2.08 -11.92 C-0.85 -8.56, 0.35 -1.99, 0 0 M0 0 C0.3 1.88, 0.26 5.01, 1.8 11.27 C3.34 17.53, 7.55 27.88, 9.25 37.55 C10.96 47.22, 11.5 55.28, 12.05 69.31 C12.6 83.34, 10.9 113.71, 12.57 121.73 C14.25 129.76, 19.56 121.71, 22.09 117.48 C24.61 113.24, 26 105.08, 27.71 96.31 C29.42 87.53, 30.73 75.56, 32.35 64.83 C33.97 54.11, 35.43 39.86, 37.44 31.95 C39.44 24.04, 43.14 24.19, 44.37 17.37 C45.61 10.56, 47.22 -2.6, 44.85 -8.94 C42.48 -15.28, 34.69 -18.78, 30.15 -20.66 C25.61 -22.54, 22.27 -21.65, 17.59 -20.2 C12.92 -18.74, 5.01 -15.29, 2.08 -11.92 C-0.85 -8.56, 0.35 -1.99, 0 0" stroke="#1e1e1e" stroke-width="2" fill="none"></path></g></g><mask></mask><g stroke-linecap="round"><g transform="translate(19.234770371387867 20.88264179218197) rotate(0 12.978596197626246 0.3488969777927764)"><path d="M0 0 C1.36 0.02, 5.83 -0.05, 8.18 0.12 C10.53 0.29, 12.36 1, 14.11 1.02 C15.85 1.04, 16.67 0.46, 18.64 0.24 C20.62 0.01, 24.74 -0.23, 25.96 -0.32 M0 0 C1.36 0.02, 5.83 -0.05, 8.18 0.12 C10.53 0.29, 12.36 1, 14.11 1.02 C15.85 1.04, 16.67 0.46, 18.64 0.24 C20.62 0.01, 24.74 -0.23, 25.96 -0.32" stroke="#1e1e1e" stroke-width="2" fill="none"></path></g></g><mask></mask><g stroke-linecap="round"><g transform="translate(32.46412398969426 17.45211661276096) rotate(0 0.11661096835825902 4.361074861758652)"><path d="M0 0 C0.04 1.45, 0.19 7.27, 0.23 8.72 M0 0 C0.04 1.45, 0.19 7.27, 0.23 8.72" stroke="#1e1e1e" stroke-width="2" fill="none"></path></g></g><mask></mask><g stroke-linecap="round"><g transform="translate(21.280576833813257 62.9099362078515) rotate(0 11.454470383119315 1.309964951369352)"><path d="M0 0 C0.89 0.41, 2.38 2.13, 5.37 2.48 C8.36 2.83, 15.01 2.47, 17.94 2.09 C20.86 1.7, 22.08 0.49, 22.91 0.16 M0 0 C0.89 0.41, 2.38 2.13, 5.37 2.48 C8.36 2.83, 15.01 2.47, 17.94 2.09 C20.86 1.7, 22.08 0.49, 22.91 0.16" stroke="#1e1e1e" stroke-width="2" fill="none"></path></g></g><mask></mask></svg>