<?xml version="1.0" standalone="no"?>
<!DOCTYPE svg PUBLIC "-//W3C//DTD SVG 1.1//EN" "http://www.w3.org/Graphics/SVG/1.1/DTD/svg11.dtd">
<svg version="1.1" xmlns="http://www.w3.org/2000/svg" viewBox="0 0 68.92720502988197 169.85709986015024" width="137.85441005976395" height="339.7141997203005"><!-- svg-source:excalidraw --><metadata></metadata><defs><style class="style-fonts">
      </style></defs><g stroke-linecap="round"><g transform="translate(21.09631975213233 91.50767124153947) rotate(0 13.3672827628086 -6.5791213114642915)" fill-rule="evenodd"><path d="M0 0 C0.1 3.23, 0.3 9.17, 0.58 19.41 C0.86 29.65, 0.51 53.49, 1.69 61.45 C2.87 69.4, 5.43 69.21, 7.64 67.12 C9.86 65.03, 12.44 58.26, 14.97 48.89 C17.49 39.53, 20.61 22.93, 22.81 10.94 C25.01 -1.06, 26.04 -13.86, 28.18 -23.1 C30.33 -32.34, 34.17 -36.51, 35.67 -44.51 C37.18 -52.51, 38.72 -65.86, 37.21 -71.1 C35.7 -76.35, 30.43 -74.24, 26.59 -75.98 C22.75 -77.71, 19 -81.39, 14.16 -81.5 C9.33 -81.62, 1.64 -78.51, -2.4 -76.64 C-6.44 -74.77, -8.78 -75.98, -10.07 -70.3 C-11.36 -64.63, -11.49 -51.8, -10.14 -42.58 C-8.8 -33.36, -3.7 -22.07, -2.01 -14.97 C-0.32 -7.87, -0.34 -2.5, 0 0" stroke="none" stroke-width="0" fill="#b2f2bb" fill-rule="evenodd"></path><path d="M0 0 C0.1 3.23, 0.3 9.17, 0.58 19.41 C0.86 29.65, 0.51 53.49, 1.69 61.45 C2.87 69.4, 5.43 69.21, 7.64 67.12 C9.86 65.03, 12.44 58.26, 14.97 48.89 C17.49 39.53, 20.61 22.93, 22.81 10.94 C25.01 -1.06, 26.04 -13.86, 28.18 -23.1 C30.33 -32.34, 34.17 -36.51, 35.67 -44.51 C37.18 -52.51, 38.72 -65.86, 37.21 -71.1 C35.7 -76.35, 30.43 -74.24, 26.59 -75.98 C22.75 -77.71, 19 -81.39, 14.16 -81.5 C9.33 -81.62, 1.64 -78.51, -2.4 -76.64 C-6.44 -74.77, -8.78 -75.98, -10.07 -70.3 C-11.36 -64.63, -11.49 -51.8, -10.14 -42.58 C-8.8 -33.36, -3.7 -22.07, -2.01 -14.97 C-0.32 -7.87, -0.34 -2.5, 0 0 M0 0 C0.1 3.23, 0.3 9.17, 0.58 19.41 C0.86 29.65, 0.51 53.49, 1.69 61.45 C2.87 69.4, 5.43 69.21, 7.64 67.12 C9.86 65.03, 12.44 58.26, 14.97 48.89 C17.49 39.53, 20.61 22.93, 22.81 10.94 C25.01 -1.06, 26.04 -13.86, 28.18 -23.1 C30.33 -32.34, 34.17 -36.51, 35.67 -44.51 C37.18 -52.51, 38.72 -65.86, 37.21 -71.1 C35.7 -76.35, 30.43 -74.24, 26.59 -75.98 C22.75 -77.71, 19 -81.39, 14.16 -81.5 C9.33 -81.62, 1.64 -78.51, -2.4 -76.64 C-6.44 -74.77, -8.78 -75.98, -10.07 -70.3 C-11.36 -64.63, -11.49 -51.8, -10.14 -42.58 C-8.8 -33.36, -3.7 -22.07, -2.01 -14.97 C-0.32 -7.87, -0.34 -2.5, 0 0" stroke="#1e1e1e" stroke-width="2" fill="none"></path></g></g><mask></mask><g stroke-linecap="round"><g transform="translate(20.21405537997873 63.10844825809147) rotate(0 12.283041589583036 2.0120139576927727)"><path d="M0 0 C1.02 0.51, 3.43 2.43, 6.13 3.07 C8.83 3.72, 13.13 4.32, 16.2 3.87 C19.27 3.42, 23.17 0.96, 24.57 0.38 M0 0 C1.02 0.51, 3.43 2.43, 6.13 3.07 C8.83 3.72, 13.13 4.32, 16.2 3.87 C19.27 3.42, 23.17 0.96, 24.57 0.38" stroke="#1e1e1e" stroke-width="2" fill="none"></path></g></g><mask></mask><g stroke-linecap="round"><g transform="translate(20.9082126520575 18.02888978994463) rotate(0 12.989205827997466 1.7070867595010668)"><path d="M0 0 C1.19 0.09, 4.85 -0.11, 7.12 0.53 C9.39 1.17, 11.59 3.93, 13.62 3.84 C15.65 3.76, 17.24 0.73, 19.3 0.02 C21.36 -0.69, 24.87 -0.33, 25.98 -0.4 M0 0 C1.19 0.09, 4.85 -0.11, 7.12 0.53 C9.39 1.17, 11.59 3.93, 13.62 3.84 C15.65 3.76, 17.24 0.73, 19.3 0.02 C21.36 -0.69, 24.87 -0.33, 25.98 -0.4" stroke="#1e1e1e" stroke-width="2" fill="none"></path></g></g><mask></mask><g stroke-linecap="round"><g transform="translate(34.66813052748773 15.262986816467333) rotate(0 -1.2880536640003584 5.759600519898584)"><path d="M0 0 C-0.15 0.94, -0.46 3.69, -0.89 5.61 C-1.32 7.53, -2.29 10.53, -2.58 11.52 M0 0 C-0.15 0.94, -0.46 3.69, -0.89 5.61 C-1.32 7.53, -2.29 10.53, -2.58 11.52" stroke="#1e1e1e" stroke-width="2" fill="none"></path></g></g><mask></mask></svg>