<?xml version="1.0" standalone="no"?>
<!DOCTYPE svg PUBLIC "-//W3C//DTD SVG 1.1//EN" "http://www.w3.org/Graphics/SVG/1.1/DTD/svg11.dtd">
<svg version="1.1" xmlns="http://www.w3.org/2000/svg" viewBox="0 0 96.23502804693862 156.40669596163218" width="192.47005609387725" height="312.81339192326436"><!-- svg-source:excalidraw --><metadata></metadata><defs><style class="style-fonts">
      </style></defs><g stroke-linecap="round"><g transform="translate(16.93280547353072 79.83041726930128) rotate(0 31.18470854993859 -1.627069288485302)" fill-rule="evenodd"><path d="M0 0 C-0.29 5.64, -1.97 24.01, -1.72 33.83 C-1.47 43.64, -0.58 55.07, 1.51 58.9 C3.6 62.73, 7.76 62.09, 10.83 56.8 C13.89 51.5, 17.67 34.24, 19.91 27.12 C22.16 20, 22.25 17.1, 24.31 14.08 C26.38 11.06, 29.83 6.86, 32.31 9 C34.8 11.13, 37.35 18.34, 39.22 26.88 C41.1 35.43, 41.62 53.87, 43.57 60.26 C45.53 66.64, 48.47 68, 50.96 65.18 C53.46 62.35, 56.62 51.34, 58.55 43.3 C60.48 35.26, 62.05 26.73, 62.54 16.93 C63.04 7.12, 60.76 -6.78, 61.53 -15.53 C62.31 -24.28, 66.02 -29.08, 67.19 -35.57 C68.36 -42.05, 70.42 -48.79, 68.55 -54.44 C66.67 -60.09, 62.05 -67.6, 55.93 -69.45 C49.81 -71.31, 39.43 -65.7, 31.83 -65.58 C24.23 -65.46, 16.25 -69.35, 10.34 -68.76 C4.43 -68.16, -0.76 -65.77, -3.64 -61.99 C-6.51 -58.22, -6.78 -51.62, -6.92 -46.13 C-7.07 -40.63, -5.75 -34.03, -4.5 -29.04 C-3.25 -24.04, -0.2 -20.99, 0.55 -16.16 C1.3 -11.32, 0.09 -2.69, 0 0" stroke="none" stroke-width="0" fill="#b2f2bb" fill-rule="evenodd"></path><path d="M0 0 C-0.29 5.64, -1.97 24.01, -1.72 33.83 C-1.47 43.64, -0.58 55.07, 1.51 58.9 C3.6 62.73, 7.76 62.09, 10.83 56.8 C13.89 51.5, 17.67 34.24, 19.91 27.12 C22.16 20, 22.25 17.1, 24.31 14.08 C26.38 11.06, 29.83 6.86, 32.31 9 C34.8 11.13, 37.35 18.34, 39.22 26.88 C41.1 35.43, 41.62 53.87, 43.57 60.26 C45.53 66.64, 48.47 68, 50.96 65.18 C53.46 62.35, 56.62 51.34, 58.55 43.3 C60.48 35.26, 62.05 26.73, 62.54 16.93 C63.04 7.12, 60.76 -6.78, 61.53 -15.53 C62.31 -24.28, 66.02 -29.08, 67.19 -35.57 C68.36 -42.05, 70.42 -48.79, 68.55 -54.44 C66.67 -60.09, 62.05 -67.6, 55.93 -69.45 C49.81 -71.31, 39.43 -65.7, 31.83 -65.58 C24.23 -65.46, 16.25 -69.35, 10.34 -68.76 C4.43 -68.16, -0.76 -65.77, -3.64 -61.99 C-6.51 -58.22, -6.78 -51.62, -6.92 -46.13 C-7.07 -40.63, -5.75 -34.03, -4.5 -29.04 C-3.25 -24.04, -0.2 -20.99, 0.55 -16.16 C1.3 -11.32, 0.09 -2.69, 0 0 M0 0 C-0.29 5.64, -1.97 24.01, -1.72 33.83 C-1.47 43.64, -0.58 55.07, 1.51 58.9 C3.6 62.73, 7.76 62.09, 10.83 56.8 C13.89 51.5, 17.67 34.24, 19.91 27.12 C22.16 20, 22.25 17.1, 24.31 14.08 C26.38 11.06, 29.83 6.86, 32.31 9 C34.8 11.13, 37.35 18.34, 39.22 26.88 C41.1 35.43, 41.62 53.87, 43.57 60.26 C45.53 66.64, 48.47 68, 50.96 65.18 C53.46 62.35, 56.62 51.34, 58.55 43.3 C60.48 35.26, 62.05 26.73, 62.54 16.93 C63.04 7.12, 60.76 -6.78, 61.53 -15.53 C62.31 -24.28, 66.02 -29.08, 67.19 -35.57 C68.36 -42.05, 70.42 -48.79, 68.55 -54.44 C66.67 -60.09, 62.05 -67.6, 55.93 -69.45 C49.81 -71.31, 39.43 -65.7, 31.83 -65.58 C24.23 -65.46, 16.25 -69.35, 10.34 -68.76 C4.43 -68.16, -0.76 -65.77, -3.64 -61.99 C-6.51 -58.22, -6.78 -51.62, -6.92 -46.13 C-7.07 -40.63, -5.75 -34.03, -4.5 -29.04 C-3.25 -24.04, -0.2 -20.99, 0.55 -16.16 C1.3 -11.32, 0.09 -2.69, 0 0" stroke="#1e1e1e" stroke-width="2" fill="none"></path></g></g><mask></mask><g stroke-linecap="round"><g transform="translate(25.04492543998481 64.23842039863052) rotate(0 24.637042417558973 -0.013664269662626793)"><path d="M0 0 C3.34 0.39, 13.3 2.07, 20.05 2.34 C26.8 2.61, 35.63 2.44, 40.5 1.63 C45.37 0.83, 47.81 -1.8, 49.27 -2.49 M0 0 C3.34 0.39, 13.3 2.07, 20.05 2.34 C26.8 2.61, 35.63 2.44, 40.5 1.63 C45.37 0.83, 47.81 -1.8, 49.27 -2.49" stroke="#1e1e1e" stroke-width="2" fill="none"></path></g></g><mask></mask><g stroke-linecap="round"><g transform="translate(26.973779263008964 21.388669641612296) rotate(0 21.48149041033929 1.4917236700717922)"><path d="M0 0 C1.3 0.13, 4.63 0.31, 7.79 0.81 C10.95 1.31, 14.46 2.9, 18.96 2.98 C23.46 3.06, 30.79 1.31, 34.79 1.29 C38.79 1.27, 41.6 2.59, 42.96 2.85 M0 0 C1.3 0.13, 4.63 0.31, 7.79 0.81 C10.95 1.31, 14.46 2.9, 18.96 2.98 C23.46 3.06, 30.79 1.31, 34.79 1.29 C38.79 1.27, 41.6 2.59, 42.96 2.85" stroke="#1e1e1e" stroke-width="2" fill="none"></path></g></g><mask></mask><g stroke-linecap="round"><g transform="translate(50.255998119555784 18.08887174960705) rotate(0 -1.5302883708655486 6.697221784161627)"><path d="M0 0 C-0.37 0.72, -1.91 2.69, -2.2 4.3 C-2.49 5.91, -1.61 8.14, -1.76 9.65 C-1.9 11.17, -2.84 12.77, -3.06 13.39 M0 0 C-0.37 0.72, -1.91 2.69, -2.2 4.3 C-2.49 5.91, -1.61 8.14, -1.76 9.65 C-1.9 11.17, -2.84 12.77, -3.06 13.39" stroke="#1e1e1e" stroke-width="2" fill="none"></path></g></g><mask></mask></svg>