<?xml version="1.0" standalone="no"?>
<!DOCTYPE svg PUBLIC "-//W3C//DTD SVG 1.1//EN" "http://www.w3.org/Graphics/SVG/1.1/DTD/svg11.dtd">
<svg version="1.1" xmlns="http://www.w3.org/2000/svg" viewBox="0 0 97.5852594550829 142.81793408267913" width="195.1705189101658" height="285.63586816535826"><!-- svg-source:excalidraw --><metadata></metadata><defs><style class="style-fonts">
      </style></defs><g stroke-linecap="round"><g transform="translate(16.78418612764642 60.59913844033315) rotate(0 32.00844359989503 10.809828601006302)" fill-rule="evenodd"><path d="M0 0 C0.04 5.88, -1.3 24.06, 0.26 35.3 C1.82 46.54, 6.32 62.2, 9.35 67.44 C12.39 72.68, 16.17 71.6, 18.47 66.75 C20.78 61.9, 21.11 45.29, 23.16 38.36 C25.21 31.44, 28.17 25.94, 30.76 25.2 C33.35 24.46, 37.15 27.48, 38.72 33.94 C40.29 40.39, 39.1 57.55, 40.16 63.92 C41.23 70.28, 42.52 72.77, 45.11 72.12 C47.69 71.46, 52.78 66.54, 55.67 59.98 C58.55 53.41, 61.23 42.49, 62.39 32.73 C63.54 22.98, 61.52 9.44, 62.59 1.45 C63.67 -6.53, 67.64 -8.51, 68.85 -15.19 C70.06 -21.87, 71.95 -32.77, 69.87 -38.64 C67.8 -44.51, 62.29 -49.23, 56.4 -50.43 C50.5 -51.64, 41.68 -45.88, 34.51 -45.86 C27.34 -45.85, 19.16 -50.25, 13.37 -50.33 C7.59 -50.41, 3.12 -48.63, -0.2 -46.32 C-3.52 -44.01, -5.81 -41.64, -6.57 -36.48 C-7.34 -31.32, -5.87 -21.43, -4.78 -15.35 C-3.68 -9.27, -0.8 -2.56, 0 0" stroke="none" stroke-width="0" fill="#b2f2bb" fill-rule="evenodd"></path><path d="M0 0 C0.04 5.88, -1.3 24.06, 0.26 35.3 C1.82 46.54, 6.32 62.2, 9.35 67.44 C12.39 72.68, 16.17 71.6, 18.47 66.75 C20.78 61.9, 21.11 45.29, 23.16 38.36 C25.21 31.44, 28.17 25.94, 30.76 25.2 C33.35 24.46, 37.15 27.48, 38.72 33.94 C40.29 40.39, 39.1 57.55, 40.16 63.92 C41.23 70.28, 42.52 72.77, 45.11 72.12 C47.69 71.46, 52.78 66.54, 55.67 59.98 C58.55 53.41, 61.23 42.49, 62.39 32.73 C63.54 22.98, 61.52 9.44, 62.59 1.45 C63.67 -6.53, 67.64 -8.51, 68.85 -15.19 C70.06 -21.87, 71.95 -32.77, 69.87 -38.64 C67.8 -44.51, 62.29 -49.23, 56.4 -50.43 C50.5 -51.64, 41.68 -45.88, 34.51 -45.86 C27.34 -45.85, 19.16 -50.25, 13.37 -50.33 C7.59 -50.41, 3.12 -48.63, -0.2 -46.32 C-3.52 -44.01, -5.81 -41.64, -6.57 -36.48 C-7.34 -31.32, -5.87 -21.43, -4.78 -15.35 C-3.68 -9.27, -0.8 -2.56, 0 0 M0 0 C0.04 5.88, -1.3 24.06, 0.26 35.3 C1.82 46.54, 6.32 62.2, 9.35 67.44 C12.39 72.68, 16.17 71.6, 18.47 66.75 C20.78 61.9, 21.11 45.29, 23.16 38.36 C25.21 31.44, 28.17 25.94, 30.76 25.2 C33.35 24.46, 37.15 27.48, 38.72 33.94 C40.29 40.39, 39.1 57.55, 40.16 63.92 C41.23 70.28, 42.52 72.77, 45.11 72.12 C47.69 71.46, 52.78 66.54, 55.67 59.98 C58.55 53.41, 61.23 42.49, 62.39 32.73 C63.54 22.98, 61.52 9.44, 62.59 1.45 C63.67 -6.53, 67.64 -8.51, 68.85 -15.19 C70.06 -21.87, 71.95 -32.77, 69.87 -38.64 C67.8 -44.51, 62.29 -49.23, 56.4 -50.43 C50.5 -51.64, 41.68 -45.88, 34.51 -45.86 C27.34 -45.85, 19.16 -50.25, 13.37 -50.33 C7.59 -50.41, 3.12 -48.63, -0.2 -46.32 C-3.52 -44.01, -5.81 -41.64, -6.57 -36.48 C-7.34 -31.32, -5.87 -21.43, -4.78 -15.35 C-3.68 -9.27, -0.8 -2.56, 0 0" stroke="#1e1e1e" stroke-width="2" fill="none"></path></g></g><mask></mask><g stroke-linecap="round"><g transform="translate(25.15409867241999 59.3437570528514) rotate(0 24.43193717931439 0.3923567448920835)"><path d="M0 0 C1.61 0.48, 2.69 2.47, 9.68 2.87 C16.67 3.26, 35.41 3.23, 41.94 2.36 C48.48 1.5, 47.71 -1.54, 48.86 -2.32 M0 0 C1.61 0.48, 2.69 2.47, 9.68 2.87 C16.67 3.26, 35.41 3.23, 41.94 2.36 C48.48 1.5, 47.71 -1.54, 48.86 -2.32" stroke="#1e1e1e" stroke-width="2" fill="none"></path></g></g><mask></mask><g stroke-linecap="round"><g transform="translate(30.049456204141165 22.6457790040389) rotate(0 19.447649551100938 1.093705798713529)"><path d="M0 0 C0.68 -0.07, 2.39 -0.61, 4.08 -0.41 C5.78 -0.2, 6.97 0.72, 10.16 1.22 C13.35 1.73, 19.36 2.81, 23.21 2.62 C27.06 2.42, 30.64 0.25, 33.25 0.07 C35.87 -0.12, 37.95 1.27, 38.9 1.51 M0 0 C0.68 -0.07, 2.39 -0.61, 4.08 -0.41 C5.78 -0.2, 6.97 0.72, 10.16 1.22 C13.35 1.73, 19.36 2.81, 23.21 2.62 C27.06 2.42, 30.64 0.25, 33.25 0.07 C35.87 -0.12, 37.95 1.27, 38.9 1.51" stroke="#1e1e1e" stroke-width="2" fill="none"></path></g></g><mask></mask><g stroke-linecap="round"><g transform="translate(49.43020606085486 19.901909654711403) rotate(0 -1.0567317278589599 5.177938129681991)"><path d="M0 0 C-0.18 0.55, -1.04 2.21, -1.1 3.27 C-1.15 4.33, -0.15 5.16, -0.32 6.34 C-0.49 7.53, -1.81 9.69, -2.11 10.36 M0 0 C-0.18 0.55, -1.04 2.21, -1.1 3.27 C-1.15 4.33, -0.15 5.16, -0.32 6.34 C-0.49 7.53, -1.81 9.69, -2.11 10.36" stroke="#1e1e1e" stroke-width="2" fill="none"></path></g></g><mask></mask></svg>